<svg id="Capa_1" enable-background="new 0 0 512 512" height="512" viewBox="0 0 512 512" width="512" xmlns="http://www.w3.org/2000/svg"><g><path d="m501.698 502.634h-491.396c-5.69 0-10.302-4.612-10.302-10.302v-12.697c0-5.69 4.612-10.302 10.302-10.302h491.396c5.69 0 10.302 4.612 10.302 10.302v12.697c0 5.69-4.612 10.302-10.302 10.302z" fill="#3d4fc3"/><path d="m501.698 502.634h-14.674v-33.301h14.674c5.69 0 10.302 4.612 10.302 10.302v12.697c0 5.69-4.612 10.302-10.302 10.302z" fill="#3342aa"/><path d="m79.194 329.886h-45.998c-5.69 0-10.302 4.612-10.302 10.302v129.145h66.602v-129.145c0-5.69-4.612-10.302-10.302-10.302z" fill="#9dc6fb"/><path d="m79.194 329.886h-12.592v139.447h22.894v-129.145c0-5.69-4.612-10.302-10.302-10.302z" fill="#80b4fb"/><path d="m212.397 194.602h-45.998c-5.69 0-10.302 4.612-10.302 10.302v264.43h66.602v-264.43c0-5.69-4.612-10.302-10.302-10.302z" fill="#ac80dd"/><path d="m212.397 194.602h-12.592v274.732h22.894v-264.43c0-5.69-4.612-10.302-10.302-10.302z" fill="#9d66d5"/><path d="m345.601 267.447h-45.998c-5.69 0-10.302 4.612-10.302 10.302v191.584h66.602v-191.584c-.001-5.69-4.613-10.302-10.302-10.302z" fill="#e490d0"/><path d="m345.601 267.447h-12.592v201.886h22.894v-191.584c-.001-5.69-4.613-10.302-10.302-10.302z" fill="#df73c1"/><path d="m478.804 142.569h-45.998c-5.69 0-10.302 4.612-10.302 10.302v316.462h66.602v-316.462c0-5.69-4.613-10.302-10.302-10.302z" fill="#b3e59f"/><path d="m478.804 142.569h-12.592v326.764h22.894v-316.462c0-5.69-4.613-10.302-10.302-10.302z" fill="#95d6a4"/><g><path d="m322.595 175.272c-1.253 0-2.523-.305-3.7-.949l-133.203-72.845c-3.744-2.047-5.119-6.742-3.071-10.486 2.047-3.744 6.74-5.121 10.486-3.071l133.203 72.845c3.743 2.047 5.119 6.742 3.071 10.486-1.404 2.567-4.053 4.02-6.786 4.02z" fill="#ffc250"/></g><g><path d="m322.604 175.271c-2.061 0-4.118-.82-5.639-2.442-2.919-3.114-2.761-8.003.352-10.922l133.203-124.877c3.114-2.919 8.003-2.76 10.922.352 2.918 3.114 2.761 8.003-.352 10.922l-133.204 124.877c-1.491 1.397-3.389 2.09-5.282 2.09z" fill="#ffc250"/></g><g><path d="m56.195 237.71c-1.957 0-3.915-.739-5.421-2.22-3.04-2.994-3.078-7.886-.085-10.927l133.204-135.284c2.993-3.042 7.885-3.078 10.927-.086 3.04 2.994 3.078 7.886.085 10.927l-133.204 135.284c-1.512 1.537-3.509 2.306-5.506 2.306z" fill="#ffc250"/></g><g fill="#ffd064"><circle cx="56.195" cy="229.984" r="33.301"/><circle cx="189.398" cy="94.699" r="33.301"/><circle cx="322.602" cy="167.545" r="33.301"/><circle cx="455.805" cy="42.667" r="33.301"/></g></g></svg>