<svg id="Layer_1" enable-background="new 0 0 504.5 504.5" height="512" viewBox="0 0 504.5 504.5" width="512" xmlns="http://www.w3.org/2000/svg"><g><g><path d="m396.19 163.835c-6.797 0-13.366.976-19.575 2.796l5.521-48.403h-290.952l36.661 321.438c1.743 15.286 14.649 26.829 29.997 26.829h157.635c15.348 0 28.254-11.543 29.997-26.829l16.706-146.474 1.019 1.909c9.819 5.306 21.054 8.317 32.99 8.317 38.451 0 69.622-31.247 69.622-69.792s-31.17-69.791-69.621-69.791zm0 111.851c-12.007 0-22.851-5.082-30.506-13.212l7.283-63.858c6.654-4.45 14.641-7.05 23.223-7.05 23.135 0 41.957 18.868 41.957 42.06.001 23.192-18.821 42.06-41.957 42.06z" fill="#f9f2d7"/><path d="m382.136 118.228h-290.952l36.661 321.438c1.743 15.286 14.649 26.829 29.997 26.829h157.635c15.348 0 28.254-11.543 29.997-26.829z" fill="#f9f2d7"/><g><path d="m396.19 163.834c-6.796 0-13.365.976-19.575 2.796l5.521-48.403h-40l-36.661 321.438c-1.743 15.286-14.649 26.829-29.998 26.829h40c15.179 0 28.289-11.835 29.998-26.829l16.706-146.474 1.019 1.909c9.819 5.306 21.054 8.318 32.99 8.318 38.451 0 69.622-31.247 69.622-69.792s-31.171-69.792-69.622-69.792zm0 111.852c-12.006 0-22.851-5.082-30.506-13.212l7.283-63.858c6.654-4.45 14.641-7.05 23.223-7.05 23.135 0 41.958 18.868 41.958 42.06s-18.822 42.06-41.958 42.06z" fill="#f2eacb"/><path d="m396.19 275.686c23.135 0 41.958-18.868 41.958-42.06s-18.822-42.06-41.958-42.06c-8.582 0-16.569 2.599-23.223 7.05l-7.283 63.858c7.656 8.13 18.5 13.212 30.506 13.212z" fill="none"/><g fill="#f2eacb"><path d="m365.684 262.474 7.283-63.858z"/><path d="m376.615 166.631 5.521-48.403z"/></g></g><g><path d="m154.778 436.584c.179 1.571 1.497 2.755 3.065 2.755h157.635c1.568 0 2.885-1.185 3.065-2.756l19.908-174.553h-203.582z" fill="#9b4f1d"/><path d="m127.65 198.726 7.219 63.304h203.582l7.22-63.304z" fill="#f0aa7d"/></g><path d="m382.756 504.5h-292.192c-18.021 0-34.724-9.453-44.008-24.908l-7.868-13.098h395.944l-7.868 13.098c-9.284 15.455-25.987 24.908-44.008 24.908z" fill="#f2eacb"/><path d="m394.632 466.494-7.868 13.098c-9.284 15.455-25.986 24.908-44.008 24.908h40c18.021 0 34.724-9.453 44.008-24.908l7.868-13.098z" fill="#ebe0b9"/></g><g><g><path d="m196.479 88.363c-4.143 0-7.5-3.358-7.5-7.5 0-10.05 7.28-15.075 12.098-18.4 4.353-3.004 5.618-4.164 5.618-6.056s-1.266-3.051-5.618-6.055c-4.817-3.325-12.098-8.35-12.098-18.4s7.28-15.074 12.098-18.399c4.353-3.003 5.618-4.163 5.618-6.053 0-4.142 3.357-7.5 7.5-7.5s7.5 3.358 7.5 7.5c0 10.05-7.28 15.074-12.098 18.399-4.353 3.003-5.618 4.163-5.618 6.053 0 1.892 1.266 3.051 5.618 6.055 4.817 3.325 12.098 8.35 12.098 18.4s-7.28 15.075-12.098 18.4c-4.353 3.004-5.618 4.164-5.618 6.055 0 4.143-3.357 7.501-7.5 7.501z" fill="#f0aa7d"/></g><g><path d="m251.329 88.363c-4.143 0-7.5-3.358-7.5-7.5 0-10.05 7.28-15.075 12.098-18.4 4.353-3.004 5.618-4.164 5.618-6.056s-1.266-3.051-5.618-6.055c-4.817-3.325-12.098-8.35-12.098-18.4s7.28-15.074 12.098-18.399c4.353-3.003 5.618-4.163 5.618-6.053 0-4.142 3.357-7.5 7.5-7.5s7.5 3.358 7.5 7.5c0 10.05-7.28 15.074-12.098 18.399-4.353 3.003-5.618 4.163-5.618 6.053 0 1.892 1.266 3.051 5.618 6.055 4.817 3.325 12.098 8.35 12.098 18.4s-7.28 15.075-12.098 18.4c-4.353 3.004-5.618 4.164-5.618 6.055 0 4.143-3.357 7.501-7.5 7.501z" fill="#f0aa7d"/></g></g></g></svg>