<svg width="23" height="22" viewBox="0 0 23 22" fill="none" xmlns="http://www.w3.org/2000/svg">
<path d="M12.4345 18.7916C9.15207 19.2458 5.14819 16.1415 3.33324 14.0222C2.43737 12.9375 1.88712 11.4354 1.56404 10.0994C1.2776 8.75001 1.38079 7.21647 2.16151 6.05795C3.06194 4.77249 4.77042 4.10511 6.29788 4.41829C7.83876 4.7681 8.92404 5.57564 9.80754 7.08036C10.6641 5.56165 11.5692 4.85619 13.0874 4.00933C14.1927 3.39677 15.5519 3.02376 16.7362 3.42107C18.2709 3.98091 19.0518 5.7725 18.9388 7.39284C18.7892 9.0266 18.2108 11.1914 17.1783 13.0239C16.0296 15.1066 14.3144 17.2305 12.4345 18.7916Z" fill="#FF5856"/>
</svg>
