<svg width="68" height="68" viewBox="0 0 68 68" fill="none" xmlns="http://www.w3.org/2000/svg">
<path d="M6.51715 48.5238C3.15182 44.6008 1.96209 42.0381 1.29261 40.0752C0.626776 38.0866 6.89054 38.4467 8.21363 38.7655C9.92 39.1648 12.0542 39.8877 12.0542 39.8877L6.51715 48.5238Z" fill="#FFB020"/>
<path d="M29.1498 67.8287C28.6042 67.5937 25.7494 65.2691 25.2093 63.6929C24.1218 60.408 18.0758 60.3681 18.0758 60.3681L32.7457 48.5514" fill="#FFB020"/>
<path d="M19.0152 38.1099C20.7588 33.2258 22.3989 30.9321 23.7747 29.3902C25.1543 27.8225 27.8514 33.4927 28.3321 34.7448C28.883 36.2435 29.671 38.6705 29.671 38.6705L19.0152 38.1099Z" fill="#FFB020"/>
<path d="M60.1618 27.3556C57.6001 29.2823 55.4148 31.7095 52.9454 33.7281C51.488 34.9164 48.3595 37.3154 49.3606 33.7734C50.6035 29.2659 55.2889 25.719 57.9847 22.1011C60.9416 18.1254 63.4108 13.1336 62.4718 8.05423C61.4923 2.89014 53.9958 -1.77535 50.2785 3.85555C48.0651 7.22597 50.0635 11.1398 54.1089 11.186C54.2932 11.1857 54.5032 11.1891 54.6874 11.1888C53.8914 11.0499 53.0695 10.9073 52.2735 10.7684C53.0476 11.0621 52.56 10.0458 52.3218 10.9857C52.0322 12.1024 52.0115 13.1783 51.5672 14.2732C50.6934 16.5439 49.3071 18.5315 47.9465 20.5228C45.1335 24.5978 41.0687 29.3376 41.2452 34.5985C41.4032 39.8042 45.7749 44.238 51.1595 42.816C56.3231 41.468 61.4502 34.7999 63.3339 30.041C64.1308 28.1277 61.9321 26.0011 60.1618 27.3556Z" fill="#FFB020"/>
<path d="M32.3737 43.1838C34.6956 49.2746 33.9298 55.2442 23.9504 59.0155C14.8363 62.4357 9.44141 58.9096 7.11953 52.8189C4.79766 46.7281 8.58675 39.6602 15.5428 36.9872C22.5211 34.3436 30.0482 37.1189 32.3737 43.1838Z" fill="#FFB020"/>
<path d="M20.4341 50.7651C19.5242 50.8732 18.6847 51.228 17.9671 51.8368C17.8456 51.9512 17.82 52.1319 17.8497 52.2939C17.9052 52.4596 18.0454 52.5847 18.2001 52.6066C18.2517 52.6139 18.3033 52.6213 18.3513 52.6543C18.2296 52.5845 18.3513 52.6543 18.4029 52.6616C18.4802 52.6726 18.5246 52.7314 18.5983 52.7682C18.6241 52.7718 18.672 52.805 18.6941 52.8344C18.6941 52.8344 18.6942 52.8344 18.72 52.8381C18.7679 52.8712 18.838 52.9337 18.8859 52.9668C19.1441 53.1875 19.4023 53.4082 19.6642 53.6031L19.7121 53.6362C19.7121 53.6362 19.7121 53.6362 19.7379 53.6399C19.7379 53.6399 19.7379 53.6399 19.7637 53.6435C19.9369 53.7207 20.2131 53.6282 20.3161 53.4586C20.3161 53.4586 20.3197 53.4327 20.3234 53.4069C20.3601 53.3332 20.3969 53.2595 20.3562 53.1748C20.3599 53.149 20.3672 53.0975 20.3708 53.0717C20.3818 52.9943 20.3927 52.9169 20.4331 52.8174C20.4404 52.7658 20.4441 52.74 20.4772 52.692L20.4845 52.6404C20.5213 52.5667 20.5616 52.4671 20.5762 52.3639C20.7083 51.9879 20.8957 51.5935 20.8767 51.1699C20.9022 50.9893 20.703 50.7242 20.4341 50.7651ZM20.5324 52.6735C20.5433 52.5961 20.536 52.6477 20.5324 52.6735V52.6735Z" fill="#744B3B"/>
<ellipse cx="13.3298" cy="49.5263" rx="2.19202" ry="2.74003" transform="rotate(-33.334 13.3298 49.5263)" fill="white"/>
<ellipse cx="22.0978" cy="45.1422" rx="2.19202" ry="2.74003" transform="rotate(-33.334 22.0978 45.1422)" fill="white"/>
<ellipse cx="13.9826" cy="50.1065" rx="1.18078" ry="1.47598" transform="rotate(-25.5104 13.9826 50.1065)" fill="#744B3B"/>
<ellipse cx="22.7507" cy="45.7225" rx="1.18078" ry="1.47598" transform="rotate(-25.5104 22.7507 45.7225)" fill="#744B3B"/>
<line x1="26.5327" y1="48.3989" x2="29.1765" y2="46.7102" stroke="#885A37" stroke-width="0.328804" stroke-linecap="round"/>
<line x1="0.164402" y1="-0.164402" x2="3.30149" y2="-0.164402" transform="matrix(-0.981431 0.191814 0.191814 0.981431 13.3943 53.7046)" stroke="#885A37" stroke-width="0.328804" stroke-linecap="round"/>
<line x1="26.8695" y1="49.4892" x2="29.7392" y2="48.7666" stroke="#885A37" stroke-width="0.328804" stroke-linecap="round"/>
<line x1="0.164402" y1="-0.164402" x2="3.12363" y2="-0.164402" transform="matrix(-0.870411 0.492326 0.492326 0.870411 13.979 54.7381)" stroke="#885A37" stroke-width="0.328804" stroke-linecap="round"/>
</svg>
