<svg width="57" height="69" viewBox="0 0 57 69" fill="none" xmlns="http://www.w3.org/2000/svg">
<path d="M48.746 7.74741C47.9777 6.26445 46.3673 5.35262 44.758 4.85337C40.198 3.37007 35.0833 4.26726 30.9025 6.58676C29.3445 7.45768 27.8714 8.56032 26.8328 10.0294C24.7014 13.0248 24.9193 17.4121 27.2448 20.2768C27.58 20.6796 28.2913 20.9823 28.2913 20.9823C27.8588 24.1064 27.7798 26.3501 27.6032 29.4555C29.5537 26.3762 31.8448 23.5098 34.4438 20.8687L34.8806 20.934C39.4122 21.8271 43.9109 18.9406 46.8059 15.3652C48.6049 13.2048 50.0226 10.208 48.746 7.74741Z" fill="#FCFAF8"/>
<path d="M32.6098 15.7592C33.3593 15.4847 33.7553 14.6843 33.4941 13.9713C33.233 13.2584 32.4138 12.903 31.6643 13.1775C30.9148 13.452 30.5188 14.2525 30.7799 14.9654C31.041 15.6783 31.8603 16.0337 32.6098 15.7592Z" fill="#D6D7F0"/>
<path d="M37.3429 14.0257C38.0924 13.7512 38.4882 12.9508 38.2271 12.2379C37.966 11.525 37.1469 11.1695 36.3974 11.444C35.6479 11.7185 35.2519 12.5189 35.513 13.2319C35.7741 13.9448 36.5934 14.3002 37.3429 14.0257Z" fill="#D6D7F0"/>
<path d="M41.7453 12.4135C42.4948 12.139 42.8907 11.3385 42.6296 10.6256C42.3685 9.91263 41.5493 9.55724 40.7998 9.83174C40.0503 10.1062 39.6543 10.9067 39.9154 11.6196C40.1765 12.3326 40.9958 12.688 41.7453 12.4135Z" fill="#D6D7F0"/>
<path d="M12.1454 28.1863C9.17994 28.5967 5.56269 25.7921 3.92299 23.8775C3.11363 22.8976 2.61652 21.5405 2.32463 20.3335C2.06585 19.1144 2.15908 17.729 2.86441 16.6823C3.67789 15.521 5.22139 14.918 6.60136 15.201C7.99345 15.517 8.97393 16.2466 9.77211 17.606C10.546 16.2339 11.3637 15.5966 12.7352 14.8315C13.7338 14.2781 14.9618 13.9411 16.0317 14.3C17.4182 14.8058 18.1237 16.4244 18.0217 17.8883C17.8865 19.3643 17.3639 21.3201 16.4311 22.9756C15.3934 24.8572 13.8438 26.776 12.1454 28.1863Z" fill="#FF5856"/>
<path d="M38.6918 63.5945L35.957 63.5074C35.3094 63.4818 34.7691 62.9289 34.7947 62.2814L35.0682 54.1102C35.0938 53.4627 35.6467 52.9224 36.2942 52.948L39.0289 53.0351C39.6764 53.0607 40.2169 53.6135 40.1913 54.2611L39.9178 62.4322C39.9043 63.1129 39.3393 63.6201 38.6918 63.5945Z" fill="#676BC4"/>
<path d="M46.8202 63.5457L41.4412 63.4134C40.5797 63.316 39.9181 62.4321 39.9339 61.4503L40.1416 54.8424C40.1728 54.0051 40.7433 53.3081 41.5322 53.2069L49.9029 53.82C51.059 53.6969 50.9608 54.1459 50.9305 55.3958L49.4312 60.9376C49.4108 62.5217 46.8202 63.5457 46.8202 63.5457Z" fill="#FCBF9A"/>
<path d="M40.5244 53.8387C40.5244 53.8387 43.1103 50.7518 43.8664 49.5364C44.4724 48.5261 44.8062 46.9773 45.3269 46.8617C47.5964 46.2933 47.154 49.0831 46.9419 49.8365C46.6161 50.8943 45.384 53.3728 45.384 53.3728L40.5244 53.8387Z" fill="#FCBF9A"/>
<path d="M48.6723 63.5806L42.9921 63.4461C42.2331 63.4237 41.6354 62.8168 41.6577 62.0578C41.6801 61.2988 42.287 60.7011 43.046 60.7234L48.7262 60.8579C49.4852 60.8803 50.0829 61.4872 50.0606 62.2462C50.0382 63.0052 49.3982 63.6151 48.6723 63.5806Z" fill="#FCBF9A"/>
<path d="M49.3108 61.0192L43.6306 60.8847C42.8716 60.8624 42.274 60.2554 42.2964 59.4964C42.3188 58.7374 42.9257 58.1397 43.6847 58.162L49.3649 58.2967C50.1239 58.319 50.7215 58.926 50.6992 59.685C50.722 60.465 50.0819 61.0747 49.3108 61.0192Z" fill="#FCBF9A"/>
<path d="M50.1723 58.4513L44.4921 58.3168C43.7331 58.2945 43.1354 57.6875 43.1577 56.9285C43.1801 56.1696 43.787 55.5718 44.546 55.5942L50.2262 55.7288C50.9852 55.7512 51.583 56.3581 51.5606 57.1171C51.5383 57.8761 50.8982 58.4858 50.1723 58.4513Z" fill="#FCBF9A"/>
<path d="M50.5879 55.8966L44.9077 55.7621C44.1487 55.7398 43.5511 55.1328 43.5735 54.3738C43.5959 53.6148 44.2028 53.017 44.9618 53.0394L50.642 53.1739C51.401 53.1963 51.9985 53.8033 51.9762 54.5622C51.966 55.3543 51.3138 55.9311 50.5879 55.8966Z" fill="#FCBF9A"/>
<ellipse cx="45.1077" cy="33.3505" rx="4.26227" ry="6.3934" fill="white"/>
<ellipse cx="51.9268" cy="33.3505" rx="4.26227" ry="6.3934" fill="white"/>
<ellipse cx="42.9763" cy="33.7767" rx="2.13113" ry="3.40981" fill="black"/>
<ellipse cx="49.7957" cy="33.7767" rx="2.13113" ry="3.40981" fill="black"/>
</svg>
