<svg width="1133" height="3754" viewBox="0 0 1133 3754" fill="none" xmlns="http://www.w3.org/2000/svg">
<rect width="1133" height="3754" fill="#00091F"/>
<path d="M748.885 967.657V1150.65H482V1268.45V1362.5M748.885 967.657H950.92V886.052M748.885 967.657H677.549V830.974M677.549 830.974H950.92V886.052M677.549 830.974V661.018H987.835V584.583H1133M950.92 886.052H1133M482 1362.5H1000V1184.5H1133M482 1362.5V1435H723.5V1710H1021.5V2027.5H1133" stroke="#22204C" stroke-opacity="0.55" stroke-width="2"/>
<path d="M3.98926 518.679L53.152 478.235L134.762 494.334L179.043 433.713L220.305 458.798L357.054 361.192" stroke="#22204C" stroke-width="2"/>
<path d="M795 142.08L909.329 74.942L946.274 83.3253L1002.69 45.9357L1051.62 65.1646L1130 0" stroke="#22204C" stroke-width="2"/>
<path d="M1 1941H126.651V2093.5H188.092V2286.9H456V2629M456 2875V2629M456 2629H-1.5" stroke="#22204C" stroke-opacity="0.55" stroke-width="2"/>
<path d="M1 2251.89H322V1479.5H1" stroke="#22204C" stroke-opacity="0.55" stroke-width="2"/>
<path d="M78.8346 140.95V68.5595H60.9055V140.95H78.8346Z" fill="#1E1D46" fill-opacity="0.6"/>
<path d="M127 140.847V82.5873H109V140.847H127Z" fill="#1E1D46" fill-opacity="0.6"/>
<path d="M55.1889 142.8V54.9141H37V142.8H55.1889Z" fill="#1E1D46" fill-opacity="0.6"/>
<path d="M103 140.487V103.483H84.811V140.487H103Z" fill="#1E1D46" fill-opacity="0.6"/>
<ellipse opacity="0.6" cx="1042.3" cy="449.71" rx="48.2633" ry="48.2902" fill="#22204C" fill-opacity="0.5"/>
<path opacity="0.6" d="M1013.64 410.725L1042.8 449.961L994.289 456.501C991.775 432.858 1005.35 416.007 1013.64 410.725Z" fill="#191C44"/>
<path d="M1131 2874.99L-2 2874.99" stroke="#22204C" stroke-opacity="0.55" stroke-width="2"/>
<path d="M1130.01 2451.31H871.692V2574.56V3653.5" stroke="#22204C" stroke-opacity="0.55" stroke-width="2"/>
<path d="M1134 3339H208V2875" stroke="#22204C" stroke-opacity="0.55" stroke-width="2"/>
<path d="M303 3655.5V3304H1" stroke="#22204C" stroke-opacity="0.55" stroke-width="2"/>
</svg>
