<?xml version="1.0"?>
<svg xmlns="http://www.w3.org/2000/svg" id="Capa_1" enable-background="new 0 0 512 512" height="512px" viewBox="0 0 512 512" width="512px" class=""><g><path d="m512 256c0 141.38-114.62 256-256 256-40.02 0-77.9-9.18-111.65-25.58-.03-.01-.06-.03-.09-.04-12.53-6.08-24.48-13.16-35.76-21.13-17.15-12.1-32.74-26.26-46.42-42.13-5.72-6.63-11.11-13.56-16.13-20.76-3.85-5.52-7.49-11.18-10.91-17.01v-.02c-22.27-37.96-35.04-82.15-35.04-129.33 0-141.38 114.62-256 256-256 38.16 0 74.37 8.35 106.9 23.33 48 22.08 87.99 58.58 114.42 103.95 5.11 8.75 9.7 17.84 13.75 27.21.01.02.02.04.03.06 13.45 31.11 20.9 65.41 20.9 101.45z" fill="#80e29d" data-original="#80E29D" class="active-path" style="fill:#2A56B4" data-old_color="#80e29d"/><path d="m491.1 154.55c-1.24 16.75-5.5 33.4-12.72 49.47-15.34 34.12-43.09 63.09-78.15 81.57-36.49 19.23-78.79 25.65-119.1 18.06-31.73-5.96-62.44-3.83-88.81 6.18-24.26 9.21-43.25 24.57-54.89 44.43-13.32 22.71-16.83 50.26-10.43 81.91 3.28 16.23 9.05 33 17.26 50.21-45.63-22.16-83.68-57.49-109.22-101.04 2.83-27.52 11.12-53.37 24.75-76.61 22.15-37.76 56.93-66.48 100.6-83.05 41.86-15.88 89.36-19.51 137.38-10.47 26.18 4.92 47.34-2.31 60.49-9.23 17.13-9.04 30.99-23.2 38.04-38.86 12.27-27.3 2.66-54.2-27.8-77.79-19.65-15.22-23.24-43.48-8.02-63.13.77-1 1.58-1.96 2.42-2.87 15.65-17.1 42.06-19.6 60.71-5.15 32.27 24.98 54.08 55.99 63.08 89.67 4.11 15.38 5.57 31.08 4.41 46.7z" fill="#ffd939" data-original="#FFD939" class=""/><path d="m424.43 183.67c-7.04 15.66-20.91 29.82-38.04 38.85-13.14 6.93-34.31 14.16-60.49 9.23-48.01-9.03-95.51-5.41-137.38 10.48-43.66 16.57-78.45 45.29-100.59 83.04-17.08 29.13-25.78 62.36-25.85 97.85-5.72-6.63-11.11-13.56-16.13-20.76-3.85-5.52-7.49-11.18-10.91-17.01v-.01c2.83-27.52 11.12-53.37 24.75-76.61 22.15-37.76 56.93-66.48 100.6-83.05 41.86-15.88 89.36-19.51 137.38-10.47 26.18 4.92 47.34-2.31 60.49-9.23 17.13-9.04 30.99-23.2 38.04-38.86 12.27-27.3 2.66-54.2-27.8-77.79-16.66-12.9-21.77-35.18-13.66-53.64 19.56 19.07 37.51 34.91 44.48 40.31 30.45 23.59 37.38 80.36 25.11 107.67z" fill="#ffb43b" data-original="#FFB43B" class=""/><path d="m132.64 457.38-24.14 7.87c11.28 7.97 23.23 15.05 35.76 21.13.03.01.06.03.09.04-4.7-9.85-8.63-19.59-11.71-29.04zm-87.16-118.13c-5.28 14.63-8.8 30.11-10.44 46.08v.01c3.42 5.83 7.06 11.5 10.91 17.02l78.02 1.76c.06-2.7.21-5.41.45-8.04.82-9.22 2.74-18.04 5.7-26.22zm104.37-109.25c-19.9 8.76-37.89 20.25-53.47 34.16l59.94 67.14c8.53-7.61 18.55-13.98 29.8-18.93zm120.9-18.55s0 0-.01 0c-12.67-1.14-25.4-1.38-37.83-.73l4.7 89.87c8.2-.42 16.64-.26 25.09.5h.01c4.8.43 9.68 1.06 14.52 1.87l14.86-88.76c-7.08-1.19-14.26-2.11-21.34-2.75zm99.84-13.25c-9.01 6.71-19.06 11.72-29.88 14.89l25.24 86.38c21.15-6.18 40.8-15.97 58.43-29.11zm119.64-72.65-12.91 1.73-76.29 10.21c.49 3.67.57 7.42.23 11.15-.45 5.09-1.68 10.24-3.65 15.32l83.94 32.48c5-12.93 8.15-26.3 9.35-39.76.07-.73.13-1.46.17-2.19.73-9.65.44-19.38-.84-28.94z" fill="#595454" data-original="#595454" class=""/><g fill="#454045"><path d="m160.861 254.999c-16.277 8.972-30.91 19.878-43.62 32.523l-20.856-23.357c15.576-13.914 33.564-25.403 53.467-34.169z" data-original="#454045" class=""/><path d="m270.751 211.453c7.072.634 14.258 1.56 21.34 2.748l-2.203 13.146c-19.058-1.097-37.818-.15-55.964 2.801l-1.018-19.429c12.428-.652 25.167-.403 37.836.734z" data-original="#454045" class=""/><path d="m370.585 198.2 17.467 23.424c-.549.302-1.098.604-1.657.896-9.474 4.993-23.108 10.136-39.782 10.779l-5.908-20.209c10.826-3.166 20.874-8.177 29.88-14.89z" data-original="#454045" class=""/><path d="m427.314 175.448-29.702-11.49c1.971-5.074 3.197-10.235 3.653-15.315.335-3.735.26-7.487-.234-11.155l27.783-3.713c2.247 15.021 1.682 29.93-1.5 41.673z" data-original="#454045" class=""/></g></g> </svg>
